<svg width="207" height="170" viewBox="0 0 207 170" fill="none" xmlns="http://www.w3.org/2000/svg">
  <g clip-path="url(#clip0_16_43)">
    <path
      d="M106.166 40.3553H105.234V14.794C105.234 10.8704 103.674 7.1075 100.898 4.33308C98.1211 1.55865 94.3553 1.9298e-09 90.4287 1.9298e-09H36.2319C34.2877 -3.13765e-05 32.3625 0.382597 30.5662 1.12604C28.77 1.86948 27.1378 2.95917 25.763 4.33291C24.3882 5.70664 23.2976 7.33751 22.5536 9.13239C21.8095 10.9273 21.4265 12.851 21.4265 14.7938V155.025C21.4265 156.967 21.8095 158.891 22.5535 160.686C23.2975 162.481 24.3881 164.112 25.7629 165.486C27.1376 166.859 28.7698 167.949 30.566 168.693C32.3622 169.436 34.2875 169.819 36.2317 169.819H90.428C94.3546 169.819 98.1204 168.26 100.897 165.486C103.673 162.711 105.233 158.948 105.233 155.025V58.5502H106.166L106.166 40.3553Z"
      fill="#3F3D56" />
    <path
      d="M102.215 13.8032V156.015C102.214 158.99 101.031 161.843 98.9265 163.947C96.8216 166.05 93.9668 167.233 90.9897 167.234H35.681C32.7027 167.234 29.8463 166.053 27.7399 163.949C25.6335 161.845 24.4496 158.991 24.4487 156.015V13.8032C24.4496 10.8273 25.6334 7.97357 27.7397 5.86975C29.846 3.76592 32.7024 2.58425 35.6805 2.58463H42.3897C42.0603 3.39416 41.9349 4.27215 42.0246 5.14145C42.1143 6.01074 42.4163 6.84472 42.9041 7.57007C43.3918 8.29542 44.0504 8.88995 44.822 9.30138C45.5936 9.71282 46.4545 9.92857 47.329 9.92968H78.8615C79.736 9.92857 80.5969 9.71282 81.3685 9.30138C82.1401 8.88995 82.7987 8.29542 83.2864 7.57007C83.7742 6.84472 84.0762 6.01074 84.1659 5.14145C84.2556 4.27215 84.1302 3.39416 83.8008 2.58463H90.9875C93.9646 2.58513 96.8196 3.76695 98.9249 5.87026C101.03 7.97356 102.213 10.8262 102.215 13.801V13.8032Z"
      fill="white" />
    <path
      d="M89.3751 136.725H38.296C36.4589 136.723 34.6976 135.992 33.3986 134.694C32.0996 133.396 31.3689 131.636 31.3668 129.801V57.9979C31.3668 40.5643 45.5607 26.381 63.0074 26.381H89.3752C91.2122 26.3831 92.9734 27.1132 94.2724 28.4112C95.5714 29.7092 96.3021 31.4691 96.3042 33.3048V129.801C96.3021 131.636 95.5714 133.396 94.2724 134.694C92.9734 135.993 91.2122 136.723 89.3751 136.725Z"
      fill="#E6E6E6" />
    <path
      d="M35.2362 154.009C37.2671 154.009 38.9136 152.364 38.9136 150.334C38.9136 148.305 37.2671 146.66 35.2362 146.66C33.2052 146.66 31.5588 148.305 31.5588 150.334C31.5588 152.364 33.2052 154.009 35.2362 154.009Z"
      fill="#E6E6E6" />
    <path
      d="M92.5072 154.009C94.5382 154.009 96.1846 152.364 96.1846 150.334C96.1846 148.305 94.5382 146.66 92.5072 146.66C90.4762 146.66 88.8298 148.305 88.8298 150.334C88.8298 152.364 90.4762 154.009 92.5072 154.009Z"
      fill="#E6E6E6" />
    <path d="M93.0057 136.583L90.7259 139.066L80.059 131.461L83.4236 127.797L93.0057 136.583Z" fill="#FFB6B6" />
    <path
      d="M95.9952 138.158L88.6447 146.163L88.5433 146.07C87.7165 145.312 87.2249 144.256 87.1767 143.136C87.1285 142.015 87.5276 140.922 88.2863 140.095L88.2865 140.095L88.519 137.615L92.1343 135.905L92.776 135.207L95.9952 138.158Z"
      fill="#2F2E41" />
    <path d="M94.4961 164.286L91.1245 164.286L89.5205 151.291L94.4969 151.291L94.4961 164.286Z" fill="#FFB6B6" />
    <path
      d="M95.356 167.552L84.4843 167.552V167.414C84.4843 166.293 84.9302 165.217 85.7238 164.424C86.5173 163.631 87.5936 163.186 88.7159 163.186H88.7161L90.702 161.68L94.4072 163.186L95.3563 163.186L95.356 167.552Z"
      fill="#2F2E41" />
    <path
      d="M78.2139 98.6832C78.2139 98.6832 57.6165 118.555 70.6379 124.706H74.6625C74.6625 124.706 75.872 120.413 78.6408 116.792C79.0211 116.295 80.4456 116.396 80.8412 115.911C83.2566 112.952 85.8753 110.411 87.6839 110.512L88.8675 124.233L88.2835 128.255C87.9159 130.787 88.0127 133.364 88.5691 135.861L88.1573 151.912L95.3793 151.916C95.3793 151.916 95.671 148.154 95.915 143.449C95.9804 142.189 96.5229 141.311 96.5749 139.969C96.6996 136.753 96.2865 133.009 96.2069 130.384L101.652 101.522L78.2139 98.6832Z"
      fill="#2F2E41" />
    <path
      d="M87.7274 56.5787L84.3689 61.0681L76.3193 65.7992L81.0539 78.1008L81.2335 87.2538L80.7929 88.3579L81.2907 90.1662C81.2907 90.1662 81.061 92.2824 79.8364 93.8536C77.6954 96.6006 74.4261 99.5863 77.7395 100.339C82.948 101.522 101.415 104.124 102.362 101.995C102.689 101.259 102.648 98.1442 102.455 94.3853C102.419 93.6823 101.642 92.9177 101.596 92.181C101.562 91.6282 102.262 91.1083 102.224 90.5478C101.801 84.3007 101.178 77.8645 101.178 77.8645L103.031 60.6408L95.6184 58.7292L94.7862 56.6093L87.7274 56.5787Z"
      fill="#8FE1D7" />
    <path
      d="M69.6489 123.526L70.7498 124.916C70.7498 124.916 80.8753 131.995 81.223 132.656L82.8232 134.169L86.6951 130.033L84.6816 127.511C83.0702 125.493 80.9883 123.901 78.6181 122.873L75.5322 120.137L69.6489 123.526Z"
      fill="#2F2E41" />
    <path
      d="M76.0827 103.658L77.9266 85.8241L78.4133 78.4841L73.2523 77.5516C73.2523 77.5516 72.4795 82.5975 71.8034 85.5587C71.1362 88.4807 72.6922 103.267 72.7334 103.657C72.3544 103.996 72.0872 104.441 71.9672 104.935C71.8472 105.429 71.88 105.947 72.0613 106.422C72.2426 106.897 72.5638 107.305 72.9825 107.593C73.4011 107.882 73.8975 108.036 74.406 108.036C74.9145 108.037 75.411 107.883 75.83 107.595C76.2489 107.307 76.5705 106.899 76.7523 106.424C76.934 105.95 76.9673 105.431 76.8478 104.937C76.7282 104.443 76.4614 103.998 76.0827 103.658Z"
      fill="#FFB9B9" />
    <path
      d="M69.4146 88.8202L78.3239 91.0801L78.262 88.5813L78.9382 87.8645L80.2893 80.7925L82.2276 76.6498L81.7238 62.4831L76.8006 65.0922L76.7946 65.0969C75.9349 66.0419 75.2159 67.1058 74.6597 68.2557C72.8038 72.0258 71.0209 80.3301 70.0876 85.1534C70.0556 85.2545 69.9937 85.3437 69.9101 85.4091C69.4471 85.8337 69.145 86.405 69.0547 87.0265C68.9645 87.648 69.0915 88.2815 69.4146 88.8202L69.4146 88.8202Z"
      fill="#8FE1D7" />
    <path
      d="M122.323 93.3735C122.323 93.3735 111.476 81.9472 111.375 81.7319C110.618 75.9827 108.439 73.4466 108.112 73.722L102.488 75.669C102.488 75.669 104.16 80.9627 105.293 84.107C106.376 87.1115 118.85 94.4503 119.058 94.8126C118.834 95.3057 118.766 95.855 118.862 96.3878C118.957 96.9206 119.213 97.4118 119.594 97.7965C119.975 98.1811 120.464 98.4411 120.996 98.542C121.528 98.6428 122.079 98.5799 122.574 98.3614C123.07 98.1429 123.488 97.7793 123.772 97.3185C124.056 96.8577 124.194 96.3215 124.167 95.7809C124.139 95.2402 123.948 94.7206 123.619 94.2907C123.29 93.8609 122.838 93.541 122.323 93.3735H122.323Z"
      fill="#FFB9B9" />
    <path
      d="M97.9459 61.0339C97.9459 61.0339 103.467 58.3301 105.608 63.6405C106.782 66.6385 109.785 73.9145 111.281 78.3935C111.291 78.422 111.305 78.449 111.322 78.4738C111.722 79.068 111.938 79.7669 111.943 80.4831C111.942 80.5353 111.948 80.5873 111.959 80.6382C111.959 80.6382 105.892 81.8193 104.087 84.9972L103.371 84.221L103.244 83.6772L98.0096 69.7205L97.9459 61.0339Z"
      fill="#8FE1D7" />
    <path
      d="M188.11 82.7078H123.47C122.894 82.7071 122.342 82.4782 121.935 82.0713C121.527 81.6643 121.298 81.1125 121.298 80.537V71.0771C121.298 70.5016 121.527 69.9499 121.935 69.5429C122.342 69.1359 122.894 68.907 123.47 68.9064H188.11C188.686 68.907 189.238 69.1359 189.645 69.5429C190.052 69.9499 190.281 70.5016 190.282 71.0771V80.537C190.281 81.1125 190.052 81.6643 189.645 82.0713C189.238 82.4782 188.686 82.7071 188.11 82.7078Z"
      fill="#E6E6E6" />
    <path
      d="M181.829 81.2436H124.936C124.36 81.2429 123.807 81.014 123.4 80.607C122.993 80.2001 122.764 79.6483 122.763 79.0728V72.5425C122.764 71.967 122.993 71.4152 123.4 71.0083C123.807 70.6013 124.36 70.3724 124.936 70.3717H186.644C187.22 70.3724 187.773 70.6013 188.18 71.0083C188.587 71.4152 188.816 71.967 188.817 72.5425V74.2612C188.815 76.1124 188.078 77.8872 186.768 79.1962C185.458 80.5052 183.682 81.2415 181.829 81.2436Z"
      fill="white" />
    <path
      d="M162.204 75.1341H136.224C136.075 75.1341 135.933 75.0752 135.828 74.9702C135.723 74.8652 135.664 74.7228 135.664 74.5743C135.664 74.4258 135.723 74.2834 135.828 74.1784C135.933 74.0734 136.075 74.0145 136.224 74.0145H162.204C162.353 74.0145 162.495 74.0734 162.6 74.1784C162.705 74.2834 162.764 74.4258 162.764 74.5743C162.764 74.7228 162.705 74.8652 162.6 74.9702C162.495 75.0752 162.353 75.1341 162.204 75.1341Z"
      fill="#8FE1D7" />
    <path
      d="M175.356 77.4239H136.224C136.075 77.4239 135.933 77.3649 135.828 77.2599C135.723 77.1549 135.664 77.0125 135.664 76.8641C135.664 76.7156 135.723 76.5732 135.828 76.4682C135.933 76.3632 136.075 76.3042 136.224 76.3042H175.356C175.504 76.3042 175.647 76.3632 175.752 76.4682C175.857 76.5732 175.916 76.7156 175.916 76.8641C175.916 77.0125 175.857 77.1549 175.752 77.2599C175.647 77.3649 175.504 77.4239 175.356 77.4239Z"
      fill="#E6E6E6" />
    <path
      d="M188.11 102.779H123.47C122.894 102.778 122.342 102.549 121.935 102.142C121.527 101.735 121.298 101.184 121.298 100.608V91.1482C121.298 90.5727 121.527 90.0209 121.935 89.614C122.342 89.207 122.894 88.9781 123.47 88.9774H188.11C188.686 88.9781 189.238 89.207 189.645 89.614C190.052 90.0209 190.281 90.5727 190.282 91.1482V100.608C190.281 101.184 190.052 101.735 189.645 102.142C189.238 102.549 188.686 102.778 188.11 102.779Z"
      fill="#E6E6E6" />
    <path
      d="M181.829 101.315H124.936C124.36 101.314 123.807 101.085 123.4 100.678C122.993 100.271 122.764 99.7194 122.763 99.1439V92.6136C122.764 92.0381 122.993 91.4863 123.4 91.0793C123.807 90.6724 124.36 90.4435 124.936 90.4428H186.644C187.22 90.4435 187.773 90.6724 188.18 91.0793C188.587 91.4863 188.816 92.0381 188.817 92.6136V94.3323C188.815 96.1835 188.078 97.9583 186.768 99.2673C185.458 100.576 183.682 101.313 181.829 101.315Z"
      fill="white" />
    <path
      d="M162.204 95.2052H136.224C136.15 95.2052 136.078 95.1907 136.01 95.1625C135.942 95.1344 135.88 95.0932 135.828 95.0412C135.776 94.9892 135.734 94.9275 135.706 94.8596C135.678 94.7916 135.664 94.7188 135.664 94.6453C135.664 94.5718 135.678 94.499 135.706 94.4311C135.734 94.3632 135.776 94.3015 135.828 94.2495C135.88 94.1975 135.942 94.1563 136.01 94.1281C136.078 94.1 136.15 94.0855 136.224 94.0855H162.204C162.353 94.0855 162.495 94.1445 162.6 94.2495C162.705 94.3545 162.764 94.4969 162.764 94.6453C162.764 94.7938 162.705 94.9362 162.6 95.0412C162.495 95.1462 162.353 95.2052 162.204 95.2052Z"
      fill="#8FE1D7" />
    <path
      d="M175.356 97.495H136.224C136.15 97.495 136.078 97.4805 136.01 97.4524C135.942 97.4242 135.88 97.383 135.828 97.331C135.776 97.279 135.734 97.2173 135.706 97.1494C135.678 97.0814 135.664 97.0086 135.664 96.9351C135.664 96.8616 135.678 96.7888 135.706 96.7209C135.734 96.653 135.776 96.5912 135.828 96.5393C135.88 96.4873 135.942 96.446 136.01 96.4179C136.078 96.3898 136.15 96.3753 136.224 96.3753H175.356C175.504 96.3753 175.647 96.4343 175.752 96.5393C175.857 96.6443 175.916 96.7866 175.916 96.9351C175.916 97.0836 175.857 97.226 175.752 97.331C175.647 97.436 175.504 97.495 175.356 97.495Z"
      fill="#E6E6E6" />
    <path
      d="M188.11 122.85H123.47C122.894 122.849 122.342 122.62 121.935 122.213C121.527 121.806 121.298 121.255 121.298 120.679V111.219C121.298 110.644 121.527 110.092 121.935 109.685C122.342 109.278 122.894 109.049 123.47 109.048H188.11C188.686 109.049 189.238 109.278 189.645 109.685C190.052 110.092 190.281 110.644 190.282 111.219V120.679C190.281 121.255 190.052 121.806 189.645 122.213C189.238 122.62 188.686 122.849 188.11 122.85Z"
      fill="#E6E6E6" />
    <path
      d="M181.829 121.386H124.936C124.36 121.385 123.807 121.156 123.4 120.749C122.993 120.342 122.764 119.79 122.763 119.215V112.685C122.764 112.109 122.993 111.557 123.4 111.15C123.807 110.743 124.36 110.515 124.936 110.514H186.644C187.22 110.515 187.773 110.743 188.18 111.15C188.587 111.557 188.816 112.109 188.817 112.685V114.403C188.815 116.255 188.078 118.029 186.768 119.338C185.458 120.647 183.682 121.384 181.829 121.386Z"
      fill="white" />
    <path
      d="M162.204 115.276H136.224C136.075 115.276 135.933 115.217 135.828 115.112C135.723 115.007 135.664 114.865 135.664 114.716C135.664 114.568 135.723 114.426 135.828 114.321C135.933 114.216 136.075 114.157 136.224 114.157H162.204C162.353 114.157 162.495 114.216 162.6 114.321C162.705 114.426 162.764 114.568 162.764 114.716C162.764 114.865 162.705 115.007 162.6 115.112C162.495 115.217 162.353 115.276 162.204 115.276Z"
      fill="#8FE1D7" />
    <path
      d="M175.356 117.566H136.224C136.075 117.566 135.933 117.507 135.828 117.402C135.723 117.297 135.664 117.155 135.664 117.006C135.664 116.858 135.723 116.715 135.828 116.61C135.933 116.505 136.075 116.446 136.224 116.446H175.356C175.504 116.446 175.647 116.505 175.752 116.61C175.857 116.715 175.916 116.858 175.916 117.006C175.916 117.155 175.857 117.297 175.752 117.402C175.647 117.507 175.504 117.566 175.356 117.566Z"
      fill="#E6E6E6" />
    <path
      d="M91.2664 55.1376C95 55.1376 98.0268 52.1131 98.0268 48.3823C98.0268 44.6514 95 41.6269 91.2664 41.6269C87.5327 41.6269 84.5059 44.6514 84.5059 48.3823C84.5059 52.1131 87.5327 55.1376 91.2664 55.1376Z"
      fill="#FFB9B9" />
    <path
      d="M86.2956 52.7268C86.2145 52.7272 86.1339 52.7142 86.0571 52.6884C85.7553 52.5562 85.5031 52.3322 85.3364 52.0483C84.1724 50.3755 83.6104 48.1452 83.6661 45.4193C83.6897 44.2661 83.8203 42.7916 84.6285 41.6163C85.3082 40.628 86.6831 39.8437 87.9644 40.2374C87.9498 39.9814 88.0067 39.7263 88.1287 39.5007C88.2507 39.2751 88.433 39.0878 88.6554 38.9598C89.1407 38.6628 89.7249 38.6081 90.2402 38.5597C91.5416 38.4378 92.8869 38.3118 94.2046 38.5613C95.6821 38.8414 96.8902 39.6023 97.519 40.6491L97.5319 40.682L97.6597 41.3023C97.6769 41.3856 97.7119 41.4643 97.7625 41.5329C97.813 41.6014 97.8778 41.6582 97.9524 41.6993C98.027 41.7404 98.1096 41.7649 98.1946 41.7711C98.2796 41.7772 98.3648 41.7649 98.4446 41.7349C98.5316 41.7022 98.6257 41.6927 98.7175 41.7073C98.8094 41.722 98.8958 41.7604 98.9683 41.8186C99.0407 41.8769 99.0967 41.953 99.1308 42.0395C99.1648 42.126 99.1757 42.2198 99.1623 42.3118L99.1266 42.5585L99.4983 42.4891C99.5913 42.4717 99.6872 42.4794 99.7763 42.5111C99.8654 42.5429 99.9444 42.5977 100.005 42.6699C100.066 42.7422 100.107 42.8293 100.123 42.9224C100.14 43.0155 100.131 43.1112 100.098 43.1999L99.9934 43.4836C100.07 43.4841 100.146 43.5003 100.217 43.5313C100.287 43.5623 100.35 43.6073 100.403 43.6637C100.478 43.7444 100.525 43.8471 100.538 43.9567C100.55 44.0663 100.528 44.177 100.473 44.2727C100.057 44.9824 99.4682 45.5748 98.7605 45.9941C98.3738 46.2266 97.9509 46.3928 97.5093 46.4859C94.6435 47.1038 91.6887 47.1926 88.7909 46.7478C88.9624 47.3189 89.0285 47.9165 88.9858 48.5112C88.893 49.2549 88.456 49.8686 87.8725 50.0747C87.7397 50.1179 87.6036 50.1506 87.4657 50.1727C87.3338 50.1932 87.2039 50.2248 87.0772 50.2671C86.8896 50.3359 86.7234 50.453 86.5955 50.6066C86.4676 50.7601 86.3825 50.9446 86.3488 51.1415C86.315 51.3384 86.3338 51.5407 86.4033 51.728C86.4728 51.9153 86.5904 52.081 86.7445 52.2084L87.0322 51.9087L86.9386 52.2896C86.9191 52.3638 86.8842 52.433 86.8361 52.4928C86.7881 52.5526 86.728 52.6016 86.6597 52.6367C86.5477 52.6964 86.4226 52.7274 86.2956 52.7268Z"
      fill="#2F2E41" />
    <path
      d="M180.34 154.728L180.614 148.582C183.465 147.059 186.646 146.255 189.879 146.239C185.429 149.874 185.985 156.882 182.968 161.77C182.016 163.288 180.734 164.571 179.217 165.526C177.7 166.481 175.988 167.083 174.207 167.287L170.483 169.565C169.972 166.719 170.085 163.796 170.814 160.997C171.542 158.199 172.869 155.591 174.703 153.354C175.744 152.11 176.939 151.001 178.257 150.054C179.149 152.404 180.34 154.728 180.34 154.728Z"
      fill="#F2F2F2" />
    <path
      d="M207 169.716C207 169.753 206.993 169.79 206.979 169.825C206.964 169.859 206.943 169.891 206.917 169.917C206.89 169.943 206.859 169.964 206.824 169.979C206.79 169.993 206.753 170 206.715 170H0.284555C0.209086 170 0.136711 169.97 0.0833472 169.917C0.029983 169.863 0 169.791 0 169.716C0 169.64 0.029983 169.568 0.0833472 169.515C0.136711 169.461 0.209086 169.431 0.284555 169.431H206.715C206.753 169.431 206.79 169.438 206.824 169.453C206.859 169.467 206.89 169.488 206.917 169.514C206.943 169.541 206.964 169.572 206.979 169.607C206.993 169.641 207 169.678 207 169.716Z"
      fill="#CCCCCC" />
  </g>
  <defs>
    <clipPath id="clip0_16_43">
      <rect width="207" height="170" fill="white" />
    </clipPath>
  </defs>
</svg>