<svg width="168" height="170" viewBox="0 0 168 170" fill="none" xmlns="http://www.w3.org/2000/svg">
  <g clip-path="url(#clip0_6_13845)">
    <path
      d="M161.059 57.7562L160.307 57.4758L167.211 34.6146C168.271 31.1055 168.031 27.2731 166.543 23.9606C165.056 20.648 162.443 18.1266 159.28 16.951L159.28 16.9508L115.619 0.726556C112.456 -0.449045 109.002 -0.182523 106.016 1.46749C103.03 3.1175 100.757 6.01585 99.6971 9.52492L99.6969 9.52556L61.8256 134.944C61.3009 136.682 61.0898 138.517 61.2044 140.345C61.319 142.173 61.757 143.958 62.4935 145.598C63.2299 147.238 64.2504 148.702 65.4966 149.904C66.7428 151.107 68.1903 152.026 69.7565 152.608L69.7571 152.608L113.417 168.833C116.58 170.009 120.034 169.742 123.02 168.092C126.006 166.442 128.279 163.543 129.338 160.034L155.393 73.75L156.145 74.0295L161.059 57.7562Z"
      fill="#3F3D56" />
    <path
      d="M158.72 20.5728L153.021 18.4549C153.068 19.2651 152.934 20.0756 152.632 20.8151C152.33 21.5546 151.869 22.2003 151.289 22.6954C150.709 23.1905 150.028 23.5198 149.306 23.6542C148.585 23.7886 147.844 23.7241 147.15 23.4663L122.139 14.1712C121.445 13.9131 120.819 13.4698 120.316 12.8801C119.813 12.2905 119.448 11.5727 119.254 10.7899C119.06 10.0072 119.043 9.18352 119.203 8.39148C119.364 7.59944 119.697 6.86333 120.175 6.24797L114.852 4.26979C112.489 3.39194 109.91 3.59107 107.68 4.82337C105.45 6.05567 103.752 8.22021 102.961 10.8408L65.1439 136.075C64.3526 138.696 64.5321 141.558 65.6429 144.032C66.7537 146.505 68.7048 148.388 71.067 149.266L114.937 165.57C117.299 166.447 119.879 166.248 122.109 165.016C124.339 163.784 126.036 161.619 126.827 158.999L164.644 33.7639C165.435 31.1432 165.255 28.2812 164.144 25.8074C163.034 23.3336 161.082 21.4506 158.72 20.5728L158.72 20.5728Z"
      fill="white" />
    <path
      d="M147.749 62.5876L100.932 45.189C100.702 45.1033 100.512 44.92 100.404 44.6793C100.296 44.4386 100.278 44.1601 100.355 43.905L104.246 31.0209C104.323 30.766 104.488 30.5555 104.705 30.4356C104.922 30.3157 105.173 30.2962 105.403 30.3813L152.221 47.7802C152.45 47.8659 152.64 48.0492 152.748 48.2899C152.856 48.5306 152.874 48.8091 152.797 49.0642L148.907 61.9478C148.83 62.2027 148.664 62.4132 148.447 62.5331C148.23 62.653 147.979 62.6725 147.749 62.5874L147.749 62.5876ZM105.287 30.7665C105.149 30.7154 104.998 30.7271 104.868 30.7991C104.738 30.8711 104.639 30.9974 104.592 31.1503L100.702 44.034C100.656 44.1871 100.667 44.3541 100.731 44.4985C100.796 44.6429 100.91 44.7529 101.048 44.8043L147.865 62.2031C148.003 62.2542 148.154 62.2425 148.284 62.1705C148.414 62.0986 148.513 61.9722 148.56 61.8193L152.451 48.9363C152.497 48.7832 152.486 48.6162 152.421 48.4718C152.357 48.3273 152.243 48.2174 152.105 48.166L105.287 30.7665Z"
      fill="#3F3D56" />
    <path
      d="M132.356 113.564L85.5389 96.1653C85.3092 96.0796 85.1194 95.8963 85.0113 95.6556C84.9033 95.4149 84.8857 95.1364 84.9624 94.8813L92.1636 71.0334C92.2409 70.7785 92.4061 70.568 92.6231 70.4481C92.8401 70.3282 93.0911 70.3087 93.321 70.3938L140.139 87.792C140.368 87.8777 140.558 88.061 140.666 88.3017C140.774 88.5424 140.792 88.8209 140.715 89.076L133.514 112.924C133.436 113.179 133.271 113.39 133.054 113.51C132.837 113.629 132.586 113.649 132.356 113.564ZM93.2048 70.7783C93.0668 70.7272 92.9162 70.739 92.786 70.8109C92.6559 70.8829 92.5567 71.0092 92.5104 71.1621L85.3092 95.0101C85.2631 95.1631 85.2737 95.3302 85.3386 95.4746C85.4034 95.619 85.5173 95.729 85.6552 95.7804L132.473 113.179C132.611 113.23 132.761 113.219 132.892 113.147C133.022 113.075 133.121 112.948 133.167 112.795L140.369 88.947C140.415 88.794 140.404 88.6269 140.339 88.4825C140.275 88.3381 140.161 88.2281 140.023 88.1767L93.2048 70.7783Z"
      fill="#3F3D56" />
    <path
      d="M141.361 82.4647L120.554 74.7309C120.324 74.6452 120.134 74.4619 120.026 74.2212C119.918 73.9804 119.9 73.702 119.977 73.4469L123.868 60.5632C123.945 60.3083 124.11 60.0979 124.327 59.978C124.544 59.8581 124.795 59.8385 125.025 59.9237L145.833 67.6572C146.062 67.7429 146.252 67.9262 146.36 68.167C146.468 68.4077 146.486 68.6861 146.409 68.9412L142.519 81.8249C142.442 82.08 142.276 82.2907 142.059 82.4107C141.842 82.5307 141.591 82.5501 141.361 82.4647ZM124.909 60.3093C124.771 60.2582 124.62 60.2699 124.49 60.3419C124.36 60.4138 124.261 60.5401 124.214 60.6931L120.324 73.5768C120.278 73.7298 120.289 73.8969 120.354 74.0413C120.418 74.1857 120.532 74.2957 120.67 74.3471L141.478 82.0797C141.616 82.1308 141.766 82.1191 141.897 82.0471C142.027 81.9752 142.126 81.8489 142.172 81.6959L146.063 68.8122C146.109 68.6592 146.098 68.4921 146.033 68.3477C145.968 68.2033 145.855 68.0933 145.717 68.0419L124.909 60.3093Z"
      fill="#E6E6E6" />
    <path
      d="M96.9367 135.061L76.1296 127.328C75.8998 127.242 75.7101 127.059 75.602 126.818C75.4939 126.578 75.4763 126.299 75.5531 126.044L82.8124 102.003C82.8897 101.749 83.0549 101.538 83.2719 101.418C83.4889 101.298 83.7399 101.279 83.9698 101.364L104.777 109.097C105.007 109.182 105.197 109.366 105.305 109.606C105.413 109.847 105.431 110.125 105.354 110.381L98.0941 134.421C98.0169 134.676 97.8516 134.887 97.6346 135.007C97.4176 135.126 97.1667 135.146 96.9367 135.061ZM83.853 101.748C83.715 101.697 83.5644 101.709 83.4343 101.781C83.3041 101.853 83.2049 101.979 83.1586 102.132L75.8991 126.173C75.853 126.326 75.8636 126.493 75.9285 126.637C75.9933 126.782 76.1072 126.892 76.2451 126.943L97.053 134.676C97.1909 134.727 97.3415 134.715 97.4717 134.643C97.6019 134.572 97.701 134.445 97.7473 134.292L105.007 110.252C105.053 110.099 105.042 109.931 104.977 109.787C104.912 109.643 104.799 109.533 104.661 109.481L83.853 101.748Z"
      fill="#E6E6E6" />
    <path
      d="M122.6 144.598L101.792 136.865C101.562 136.779 101.372 136.596 101.264 136.355C101.156 136.115 101.138 135.836 101.215 135.581L108.475 111.54C108.552 111.286 108.717 111.075 108.934 110.955C109.151 110.835 109.402 110.816 109.632 110.901L130.44 118.634C130.67 118.719 130.859 118.903 130.967 119.143C131.076 119.384 131.093 119.663 131.016 119.918L123.757 143.958C123.68 144.213 123.515 144.424 123.298 144.544C123.081 144.664 122.83 144.683 122.6 144.598ZM109.516 111.286C109.378 111.234 109.227 111.246 109.097 111.318C108.967 111.39 108.868 111.516 108.822 111.669L101.562 135.71C101.516 135.863 101.527 136.03 101.591 136.175C101.656 136.319 101.77 136.429 101.908 136.48L122.716 144.214C122.854 144.265 123.004 144.253 123.135 144.181C123.265 144.109 123.364 143.983 123.41 143.83L130.67 119.789C130.716 119.636 130.705 119.469 130.64 119.324C130.575 119.18 130.461 119.07 130.324 119.019L109.516 111.286Z"
      fill="#E6E6E6" />
    <path
      d="M97.6977 85.5479C99.7548 85.5479 101.422 83.698 101.422 81.4159C101.422 79.1339 99.7548 77.284 97.6977 77.284C95.6407 77.284 93.9731 79.1339 93.9731 81.4159C93.9731 83.698 95.6407 85.5479 97.6977 85.5479Z"
      fill="#8FE1D7" />
    <path
      d="M106.642 81.8352C106.486 81.7772 106.316 81.7904 106.168 81.8718C106.021 81.9532 105.909 82.0963 105.856 82.2695C105.804 82.4427 105.816 82.6318 105.889 82.7953C105.963 82.9588 106.092 83.0832 106.248 83.1412L133.997 93.4534C134.074 93.4821 134.156 93.4937 134.237 93.4874C134.318 93.4811 134.398 93.4571 134.471 93.4168C134.544 93.3765 134.609 93.3206 134.662 93.2524C134.716 93.1841 134.757 93.1049 134.782 93.0191C134.808 92.9334 134.819 92.8428 134.813 92.7526C134.807 92.6624 134.786 92.5743 134.75 92.4933C134.713 92.4124 134.663 92.3401 134.601 92.2808C134.54 92.2214 134.468 92.1761 134.391 92.1474L106.642 81.8352Z"
      fill="#E6E6E6" />
    <path
      d="M105.46 85.753C105.383 85.7243 105.301 85.7128 105.22 85.719C105.138 85.7253 105.059 85.7493 104.986 85.7896C104.913 85.8299 104.848 85.8858 104.794 85.954C104.741 86.0223 104.7 86.1015 104.674 86.1873C104.648 86.273 104.638 86.3636 104.643 86.4538C104.649 86.5441 104.671 86.6322 104.707 86.7131C104.743 86.7941 104.794 86.8663 104.855 86.9256C104.917 86.985 104.988 87.0303 105.065 87.0591L117.006 91.4965C117.083 91.5253 117.165 91.5368 117.246 91.5305C117.327 91.5243 117.407 91.5003 117.48 91.46C117.553 91.4196 117.618 91.3638 117.671 91.2955C117.725 91.2273 117.766 91.148 117.792 91.0623C117.818 90.9765 117.828 90.886 117.822 90.7957C117.817 90.7055 117.795 90.6174 117.759 90.5365C117.722 90.4555 117.672 90.3833 117.61 90.3239C117.549 90.2646 117.478 90.2192 117.4 90.1905L105.46 85.753Z"
      fill="#E6E6E6" />
    <path
      d="M92.703 87.9788C92.2553 87.8124 91.8025 87.97 91.6938 88.331C91.5851 88.6919 91.8611 89.1193 92.3088 89.2857L130.594 103.513C131.041 103.68 131.494 103.522 131.603 103.161C131.712 102.8 131.436 102.373 130.988 102.207L92.703 87.9788Z"
      fill="#E6E6E6" />
    <path
      d="M91.52 91.8969C91.0723 91.7305 90.6195 91.8881 90.5108 92.249C90.4021 92.61 90.6781 93.0374 91.1258 93.2038L129.411 107.432C129.858 107.598 130.311 107.44 130.42 107.079C130.529 106.718 130.253 106.291 129.805 106.125L91.52 91.8969Z"
      fill="#E6E6E6" />
    <path
      d="M110.591 44.1264C112.648 44.1264 114.316 42.2765 114.316 39.9945C114.316 37.7124 112.648 35.8625 110.591 35.8625C108.534 35.8625 106.867 37.7124 106.867 39.9945C106.867 42.2765 108.534 44.1264 110.591 44.1264Z"
      fill="#8FE1D7" />
    <path
      d="M119.536 40.4135C119.459 40.3848 119.377 40.3732 119.296 40.3795C119.215 40.3858 119.135 40.4098 119.062 40.4501C118.989 40.4904 118.924 40.5463 118.871 40.6145C118.817 40.6827 118.776 40.762 118.75 40.8477C118.725 40.9335 118.714 41.0241 118.72 41.1143C118.725 41.2045 118.747 41.2926 118.783 41.3736C118.82 41.4545 118.87 41.5267 118.932 41.5861C118.993 41.6455 119.065 41.6908 119.142 41.7195L146.891 52.0317C146.968 52.0604 147.05 52.0719 147.131 52.0657C147.212 52.0594 147.292 52.0354 147.365 51.9951C147.438 51.9548 147.503 51.8989 147.556 51.8307C147.61 51.7624 147.651 51.6832 147.677 51.5974C147.702 51.5117 147.713 51.4211 147.707 51.3309C147.702 51.2406 147.68 51.1525 147.644 51.0716C147.607 50.9906 147.557 50.9184 147.495 50.8591C147.434 50.7997 147.362 50.7544 147.285 50.7256L119.536 40.4135Z"
      fill="#E6E6E6" />
    <path
      d="M118.353 44.3316C118.276 44.3028 118.194 44.2913 118.113 44.2975C118.032 44.3038 117.952 44.3278 117.879 44.3681C117.806 44.4084 117.741 44.4643 117.688 44.5326C117.634 44.6008 117.593 44.68 117.567 44.7658C117.542 44.8515 117.531 44.9421 117.537 45.0323C117.542 45.1226 117.564 45.2107 117.6 45.2916C117.637 45.3726 117.687 45.4448 117.749 45.5041C117.81 45.5635 117.882 45.6088 117.959 45.6376L129.899 50.0751C129.977 50.1038 130.058 50.1153 130.14 50.1091C130.221 50.1028 130.3 50.0788 130.373 50.0385C130.446 49.9982 130.511 49.9423 130.565 49.8741C130.618 49.8058 130.659 49.7266 130.685 49.6408C130.711 49.5551 130.721 49.4645 130.716 49.3743C130.71 49.284 130.688 49.1959 130.652 49.115C130.616 49.034 130.565 48.9618 130.504 48.9025C130.442 48.8431 130.371 48.7978 130.294 48.769L118.353 44.3316Z"
      fill="#E6E6E6" />
    <path
      d="M115.68 72.9231L96.16 65.6691L103.419 58.5494C103.549 58.4217 103.707 58.3343 103.877 58.296C104.048 58.2576 104.224 58.2696 104.389 58.3308C104.553 58.392 104.7 58.5002 104.815 58.6445C104.931 58.7889 105.009 58.9643 105.044 59.1531L105.868 63.6531L111.14 58.481C111.303 58.3212 111.501 58.2119 111.714 58.1639C111.927 58.1159 112.148 58.1309 112.354 58.2076C112.56 58.2842 112.744 58.4196 112.888 58.6003C113.032 58.781 113.131 59.0006 113.174 59.237L115.68 72.9231ZM96.8768 65.5076L115.195 72.3152L112.816 59.3186C112.785 59.1521 112.716 58.9974 112.614 58.8701C112.513 58.7429 112.383 58.6474 112.238 58.5935C112.092 58.5395 111.937 58.5289 111.787 58.5627C111.637 58.5965 111.497 58.6735 111.382 58.786L105.635 64.4227L104.685 59.2341C104.664 59.1151 104.614 59.0046 104.541 58.9136C104.469 58.8226 104.376 58.7544 104.272 58.7158C104.169 58.6773 104.058 58.6697 103.95 58.6939C103.843 58.7181 103.743 58.7731 103.661 58.8536L96.8768 65.5076Z"
      fill="#E6E6E6" />
    <path
      d="M115.699 72.9275L94.8909 65.1948C94.6612 65.1091 94.4714 64.9258 94.3633 64.6851C94.2553 64.4444 94.2377 64.1659 94.3144 63.9108L98.2047 51.0272C98.2819 50.7723 98.4472 50.5618 98.6642 50.4419C98.8811 50.322 99.1321 50.3024 99.3621 50.3876L120.17 58.1205C120.4 58.2062 120.589 58.3895 120.698 58.6302C120.806 58.8709 120.823 59.1494 120.747 59.4045L116.856 72.2879C116.779 72.5428 116.614 72.7533 116.397 72.8732C116.18 72.9931 115.929 73.0126 115.699 72.9275ZM99.246 50.7721C99.1081 50.721 98.9575 50.7327 98.8273 50.8047C98.6971 50.8766 98.598 51.003 98.5516 51.1559L94.6614 64.0396C94.6153 64.1926 94.6259 64.3597 94.6908 64.5041C94.7556 64.6485 94.8695 64.7585 95.0074 64.8099L115.815 72.5428C115.953 72.5938 116.104 72.5821 116.234 72.5102C116.364 72.4382 116.463 72.3119 116.51 72.1589L120.4 59.2753C120.446 59.1222 120.436 58.9552 120.371 58.8107C120.306 58.6663 120.192 58.5563 120.054 58.505L99.246 50.7721Z"
      fill="#E6E6E6" />
    <path
      d="M86.9058 107.969C86.8285 107.94 86.7468 107.928 86.6654 107.935C86.584 107.941 86.5045 107.965 86.4314 108.005C86.3584 108.045 86.2932 108.101 86.2396 108.17C86.1861 108.238 86.1452 108.317 86.1192 108.403C86.0933 108.489 86.0829 108.579 86.0886 108.67C86.0943 108.76 86.116 108.848 86.1524 108.929C86.1888 109.01 86.2393 109.082 86.3009 109.142C86.3625 109.201 86.434 109.246 86.5114 109.275L98.4518 113.712C98.6079 113.77 98.7782 113.757 98.9254 113.675C99.0726 113.594 99.1846 113.451 99.2369 113.278C99.2891 113.105 99.2774 112.916 99.2041 112.753C99.1309 112.589 99.0021 112.465 98.8462 112.406L86.9058 107.969Z"
      fill="#E6E6E6" />
    <path
      d="M85.7441 111.816C85.6667 111.787 85.585 111.776 85.5036 111.782C85.4222 111.788 85.3427 111.812 85.2697 111.852C85.1966 111.893 85.1314 111.948 85.0779 112.017C85.0243 112.085 84.9834 112.164 84.9575 112.25C84.9316 112.336 84.9211 112.427 84.9268 112.517C84.9325 112.607 84.9542 112.695 84.9906 112.776C85.027 112.857 85.0775 112.93 85.1391 112.989C85.2007 113.048 85.2723 113.094 85.3497 113.122L97.2902 117.561C97.4462 117.618 97.6163 117.604 97.7633 117.523C97.9103 117.441 98.0222 117.299 98.0744 117.126C98.1266 116.953 98.1149 116.764 98.0418 116.601C97.9688 116.437 97.8403 116.313 97.6846 116.255L85.7441 111.816Z"
      fill="#E6E6E6" />
    <path
      d="M119.663 137.993C119.819 138.05 119.989 138.037 120.136 137.956C120.284 137.874 120.396 137.731 120.448 137.558C120.5 137.385 120.488 137.196 120.415 137.033C120.342 136.869 120.213 136.745 120.057 136.687L108.117 132.249C107.961 132.191 107.79 132.205 107.643 132.286C107.496 132.368 107.384 132.511 107.332 132.684C107.28 132.857 107.291 133.046 107.365 133.209C107.438 133.373 107.567 133.497 107.722 133.555L119.663 137.993Z"
      fill="#E6E6E6" />
    <path
      d="M120.825 134.145C120.902 134.174 120.984 134.186 121.065 134.18C121.146 134.173 121.226 134.149 121.299 134.109C121.372 134.069 121.437 134.013 121.491 133.945C121.544 133.876 121.585 133.797 121.611 133.711C121.637 133.625 121.648 133.535 121.642 133.445C121.636 133.354 121.615 133.266 121.578 133.185C121.542 133.104 121.491 133.032 121.43 132.973C121.368 132.913 121.296 132.868 121.219 132.839L109.279 128.402C109.201 128.373 109.12 128.361 109.038 128.367C108.957 128.374 108.877 128.398 108.804 128.438C108.731 128.478 108.666 128.534 108.612 128.602C108.559 128.671 108.518 128.75 108.492 128.836C108.466 128.922 108.456 129.012 108.461 129.103C108.467 129.193 108.489 129.281 108.525 129.362C108.562 129.443 108.612 129.515 108.674 129.575C108.735 129.634 108.807 129.679 108.884 129.708L120.825 134.145Z"
      fill="#E6E6E6" />
    <path
      d="M139.473 72.5199C139.551 72.5488 139.632 72.5604 139.714 72.5542C139.795 72.5481 139.875 72.5241 139.948 72.4838C140.021 72.4435 140.086 72.3876 140.14 72.3194C140.193 72.2511 140.234 72.1718 140.26 72.086C140.286 72.0001 140.296 71.9095 140.291 71.8192C140.285 71.7289 140.263 71.6407 140.227 71.5597C140.19 71.4787 140.14 71.4065 140.078 71.3472C140.017 71.2878 139.945 71.2425 139.868 71.2139L127.927 66.7764C127.85 66.7476 127.768 66.7359 127.687 66.7421C127.606 66.7483 127.526 66.7722 127.453 66.8125C127.38 66.8528 127.315 66.9087 127.261 66.977C127.208 67.0452 127.167 67.1245 127.141 67.2104C127.115 67.2962 127.105 67.3869 127.11 67.4771C127.116 67.5674 127.138 67.6556 127.174 67.7366C127.21 67.8176 127.261 67.8898 127.323 67.9492C127.384 68.0085 127.456 68.0538 127.533 68.0824L139.473 72.5199Z"
      fill="#E6E6E6" />
    <path
      d="M138.482 75.6012C138.559 75.63 138.641 75.6417 138.722 75.6355C138.803 75.6293 138.883 75.6054 138.956 75.5651C139.029 75.5248 139.094 75.4689 139.148 75.4006C139.201 75.3323 139.242 75.253 139.268 75.1672C139.294 75.0814 139.304 74.9907 139.299 74.9004C139.293 74.8101 139.271 74.722 139.235 74.641C139.199 74.56 139.148 74.4877 139.086 74.4284C139.025 74.3691 138.953 74.3238 138.876 74.2951L126.936 69.8577C126.858 69.8288 126.776 69.8171 126.695 69.8233C126.614 69.8295 126.534 69.8534 126.461 69.8938C126.388 69.9341 126.323 69.9899 126.269 70.0582C126.216 70.1265 126.175 70.2058 126.149 70.2916C126.123 70.3775 126.113 70.4681 126.118 70.5584C126.124 70.6487 126.146 70.7369 126.182 70.8179C126.218 70.8988 126.269 70.9711 126.331 71.0304C126.392 71.0898 126.464 71.135 126.541 71.1637L138.482 75.6012Z"
      fill="#E6E6E6" />
    <path
      d="M38.486 68.0142C41.9736 68.0142 44.8008 64.8777 44.8008 61.0087C44.8008 57.1397 41.9736 54.0032 38.486 54.0032C34.9984 54.0032 32.1712 57.1397 32.1712 61.0087C32.1712 64.8777 34.9984 68.0142 38.486 68.0142Z"
      fill="#9F616A" />
    <path
      d="M34.8358 61.8754C35.3363 61.8422 35.8252 62.0295 36.3223 62.1032C38.1009 62.3652 39.9509 60.9335 40.3437 58.9914C40.3752 58.7327 40.4447 58.4816 40.5495 58.2479C40.8232 57.752 41.4466 57.6576 41.9604 57.7716C42.4743 57.8856 42.9615 58.1524 43.4849 58.183C44.2929 58.2301 45.0686 57.6781 45.4993 56.9181C45.9063 56.1341 46.0793 55.2274 45.9937 54.3276L45.6063 54.7786C45.4489 54.4092 45.3881 53.9982 45.4309 53.5923C45.2256 53.5317 45.0097 53.5305 44.8039 53.5889C44.5981 53.6473 44.4092 53.7634 44.2554 53.926C43.9138 53.9663 44.1717 53.2232 43.9182 52.9664C43.7947 52.8823 43.6476 52.8518 43.5051 52.8808C42.7784 52.8885 42.1906 52.272 41.618 51.7757C40.6259 50.9176 39.4657 50.3305 38.2313 50.0618C37.4107 49.8842 36.5382 49.8558 35.7601 50.1939C35.1319 50.5067 34.565 50.9529 34.0912 51.5072C32.8729 52.8057 31.794 54.3338 31.2873 56.1225C30.8753 57.5876 30.8636 59.1553 31.2538 60.6277C31.458 61.3923 32.0736 64.0112 32.9747 64.0722C34.1061 64.1494 33.4266 61.9688 34.8358 61.8754Z"
      fill="#2F2E41" />
    <path
      d="M26.0913 117.098C26.4415 116.832 26.7348 116.483 26.9505 116.077C27.1662 115.672 27.2991 115.218 27.3399 114.75C27.3806 114.281 27.3282 113.808 27.1863 113.364C27.0444 112.92 26.8165 112.516 26.5186 112.18L27.6453 84.2798L21.9092 84.994L22.2425 112.285C21.7672 112.878 21.5043 113.643 21.5038 114.436C21.5032 115.229 21.7649 115.995 22.2394 116.589C22.7138 117.182 23.368 117.562 24.078 117.656C24.7879 117.75 25.5043 117.552 26.0913 117.099V117.098Z"
      fill="#A0616A" />
    <path d="M36.5554 164.327L39.8202 164.963L43.0468 151.296L38.7693 150.356L36.5554 164.327Z" fill="#A0616A" />
    <path
      d="M45.5606 169.56L35.2992 167.549L35.9995 163.151L42.2964 164.385C43.3479 164.591 44.2825 165.252 44.8946 166.222C45.5068 167.193 45.7464 168.393 45.5606 169.56Z"
      fill="#2F2E41" />
    <path d="M27.5947 166.14H30.9092L32.486 151.956H27.5941L27.5947 166.14Z" fill="#A0616A" />
    <path
      d="M37.299 169.554H26.8813V165.089H33.274C34.3415 165.089 35.3653 165.56 36.1201 166.397C36.875 167.234 37.299 168.37 37.299 169.554Z"
      fill="#2F2E41" />
    <path
      d="M41.4246 161.056C41.3728 161.056 41.3212 161.053 41.2698 161.046L37.3683 160.69C37.0207 160.644 36.7036 160.448 36.4867 160.143C36.2698 159.838 36.1709 159.451 36.2117 159.065C36.2143 159.041 36.2175 159.016 36.2211 158.992L40.0953 137.792L37.6611 123.552C37.6414 123.436 37.5845 123.332 37.5011 123.259C37.4176 123.186 37.3132 123.149 37.2071 123.155C37.1009 123.161 37.0003 123.209 36.9238 123.291C36.8473 123.373 36.8 123.482 36.7907 123.6L33.206 159.782C33.1726 160.163 33.007 160.515 32.7442 160.763C32.4814 161.011 32.1419 161.137 31.7974 161.113L28.1218 160.961C27.7997 160.936 27.4971 160.78 27.2712 160.524C27.0452 160.269 26.9115 159.93 26.8954 159.572L27.189 115.85L46.2455 113.207L47.5767 136.015L47.5713 136.039L42.7068 159.937C42.6368 160.256 42.4724 160.54 42.2399 160.743C42.0074 160.945 41.7203 161.056 41.4246 161.056Z"
      fill="#2F2E41" />
    <path
      d="M39.7287 119.177C38.6899 119.184 37.6709 118.861 36.7925 118.245C33.5758 116.015 29.9222 116.901 28.0305 117.629C27.8428 117.702 27.6427 117.727 27.4451 117.702C27.2475 117.677 27.0575 117.603 26.8894 117.485C26.7232 117.369 26.5828 117.213 26.4787 117.029C26.3746 116.844 26.3094 116.636 26.2881 116.42L22.849 82.3373C22.2724 76.627 25.3731 71.2583 30.2214 69.572C30.4035 69.5086 30.5887 69.4485 30.7769 69.3917C32.2856 68.938 33.8657 68.8565 35.4059 69.1531C36.9461 69.4497 38.409 70.1172 39.6916 71.1085C40.9982 72.1105 42.091 73.418 42.8931 74.939C43.6951 76.46 44.187 78.1575 44.334 79.9121L47.2305 114.222C47.2501 114.444 47.2229 114.668 47.151 114.877C47.0792 115.086 46.9646 115.273 46.8164 115.424C45.8013 116.466 42.855 119.176 39.7287 119.177Z"
      fill="#8FE1D7" />
    <path
      d="M29.2542 89.6456L21.4935 88.6992C21.2727 88.6723 21.0598 88.5928 20.8691 88.4663C20.6785 88.3399 20.5147 88.1693 20.3888 87.9662C20.2629 87.7632 20.178 87.5324 20.1398 87.2896C20.1016 87.0469 20.1109 86.7978 20.1673 86.5595L22.1427 78.207C22.2023 77.5847 22.3719 76.9816 22.6417 76.432C22.9116 75.8825 23.2764 75.3973 23.7154 75.0043C24.1543 74.6112 24.6588 74.318 25.2 74.1414C25.7411 73.9647 26.3084 73.9081 26.8692 73.9748C27.4301 74.0414 27.9737 74.2301 28.4688 74.5299C28.964 74.8298 29.401 75.2349 29.7549 75.7222C30.1088 76.2095 30.3727 76.7694 30.5315 77.3699C30.6902 77.9704 30.7408 78.5997 30.6802 79.2219C30.6785 79.2399 30.6766 79.2578 30.6747 79.2758L30.9679 87.8767C30.9763 88.123 30.9366 88.3683 30.8518 88.5961C30.7669 88.8238 30.6388 89.0286 30.4762 89.1964C30.3135 89.3643 30.1202 89.4913 29.9093 89.5688C29.6985 89.6463 29.475 89.6725 29.2542 89.6456Z"
      fill="#8FE1D7" />
    <path
      d="M47.1982 115.903C47.5169 115.592 47.7703 115.207 47.9404 114.775C48.1106 114.344 48.1933 113.876 48.1829 113.405C48.1724 112.934 48.069 112.472 47.8799 112.05C47.6908 111.628 47.4206 111.257 47.0884 110.964L45.1761 83.1164L39.5555 84.5201L42.855 111.639C42.4477 112.291 42.27 113.086 42.3556 113.873C42.4413 114.661 42.7843 115.386 43.3196 115.911C43.855 116.437 44.5455 116.726 45.2603 116.725C45.9752 116.723 46.6648 116.431 47.1984 115.903L47.1982 115.903Z"
      fill="#A0616A" />
    <path
      d="M37.4004 87.895C37.2376 87.7271 37.1094 87.5222 37.0245 87.2943C36.9397 87.0664 36.9002 86.8208 36.9088 86.5744L37.202 77.9735C37.0812 76.7222 37.4117 75.4688 38.1213 74.487C38.8309 73.5052 39.8619 72.8748 40.9891 72.7336C42.1163 72.5924 43.248 72.9518 44.1371 73.7334C45.0262 74.515 45.6003 75.6551 45.734 76.9048L47.7094 85.2572C47.7658 85.4956 47.7751 85.7446 47.7369 85.9874C47.6987 86.2301 47.6138 86.4609 47.4879 86.6639C47.362 86.867 47.1982 87.0376 47.0076 87.1641C46.8169 87.2905 46.604 87.37 46.3832 87.3969L38.6225 88.3433C38.4016 88.3704 38.1781 88.3443 37.9672 88.2667C37.7563 88.1892 37.563 88.0621 37.4004 87.8941V87.895Z"
      fill="#8FE1D7" />
    <path d="M146.457 169.56H0V170H146.457V169.56Z" fill="#CACACA" />
  </g>
  <defs>
    <clipPath id="clip0_6_13845">
      <rect width="167.866" height="170" fill="white" />
    </clipPath>
  </defs>
</svg>